<?xml version="1.0" encoding="UTF-8" standalone="no"?>
<svg
   xmlns:dc="http://purl.org/dc/elements/1.1/"
   xmlns:cc="http://creativecommons.org/ns#"
   xmlns:rdf="http://www.w3.org/1999/02/22-rdf-syntax-ns#"
   xmlns:svg="http://www.w3.org/2000/svg"
   xmlns="http://www.w3.org/2000/svg"
   xmlns:xlink="http://www.w3.org/1999/xlink"
   xmlns:sodipodi="http://sodipodi.sourceforge.net/DTD/sodipodi-0.dtd"
   xmlns:inkscape="http://www.inkscape.org/namespaces/inkscape"
   width="58.405193mm"
   height="42.333332mm"
   viewBox="0 0 58.405193 42.333332"
   version="1.1"
   id="svg8"
   inkscape:version="1.0.2 (1.0.2+r75+1)"
   sodipodi:docname="cover.svg">
  <defs
     id="defs2">
    <linearGradient
       inkscape:collect="always"
       id="linearGradient1244">
      <stop
         style="stop-color:#f9f9f9;stop-opacity:0.00159651"
         offset="0"
         id="stop1240" />
      <stop
         style="stop-color:#f9f9f9;stop-opacity:1"
         offset="0.5"
         id="stop1248" />
      <stop
         style="stop-color:#f9f9f9;stop-opacity:0;"
         offset="1"
         id="stop1242" />
    </linearGradient>
    <linearGradient
       id="linearGradient3273">
      <stop
         style="stop-color:#6c6c6c"
         offset="0"
         id="stop3275" />
      <stop
         style="stop-color:#3e3e3e"
         offset="1"
         id="stop3277" />
    </linearGradient>
    <linearGradient
       id="linearGradient3263">
      <stop
         style="stop-color:#f7f7f7"
         offset="0"
         id="stop3265" />
      <stop
         style="stop-color:#e1e1e1"
         offset="1"
         id="stop3267" />
    </linearGradient>
    <linearGradient
       id="linearGradient3153">
      <stop
         style="stop-color:#ffffff"
         offset="0"
         id="stop3155" />
      <stop
         style="stop-color:#ffffff;stop-opacity:0"
         offset="1"
         id="stop3157" />
    </linearGradient>
    <filter
       id="filter3315">
      <feGaussianBlur
         stdDeviation="3.7"
         id="feGaussianBlur3317" />
    </filter>
    <radialGradient
       xlink:href="#linearGradient3153"
       id="radialGradient3328"
       gradientUnits="userSpaceOnUse"
       gradientTransform="matrix(-0.8695893,0.8695893,-1.9614862,-1.9614862,681.5104,178.1413)"
       cx="289.42923"
       cy="209.66924"
       fx="289.42923"
       fy="209.66924"
       r="92.5" />
    <radialGradient
       xlink:href="#linearGradient3263"
       id="radialGradient3349"
       gradientUnits="userSpaceOnUse"
       gradientTransform="matrix(0,2.8728591,-1,0,392.84375,-372.50696)"
       cx="199.28125"
       cy="192.84375"
       fx="199.28125"
       fy="192.84375"
       r="53.6875" />
    <radialGradient
       xlink:href="#linearGradient3273"
       id="radialGradient3352"
       gradientUnits="userSpaceOnUse"
       gradientTransform="matrix(0,2.7782148,-0.82387859,0,358.87983,-353.64609)"
       cx="199.28125"
       cy="192.84375"
       fx="199.28125"
       fy="192.84375"
       r="68.84375" />
    <filter
       inkscape:collect="always"
       style="color-interpolation-filters:sRGB"
       id="filter994"
       x="-0.20817177"
       width="1.4163435"
       y="-0.0061780666"
       height="1.012356">
      <feGaussianBlur
         inkscape:collect="always"
         stdDeviation="0.24504836"
         id="feGaussianBlur996" />
    </filter>
    <filter
       inkscape:collect="always"
       style="color-interpolation-filters:sRGB"
       id="filter1078"
       x="-0.017279999"
       width="1.03456"
       y="-0.017279999"
       height="1.03456">
      <feGaussianBlur
         inkscape:collect="always"
         stdDeviation="0.69806343"
         id="feGaussianBlur1080" />
    </filter>
    <filter
       inkscape:collect="always"
       style="color-interpolation-filters:sRGB"
       id="filter1202"
       x="-0.012"
       width="1.024"
       y="-0.012"
       height="1.024">
      <feGaussianBlur
         inkscape:collect="always"
         stdDeviation="0.5159375"
         id="feGaussianBlur1204" />
    </filter>
    <linearGradient
       inkscape:collect="always"
       xlink:href="#linearGradient1244"
       id="linearGradient1246"
       x1="-12.790314"
       y1="40.708054"
       x2="53.266991"
       y2="106.49458"
       gradientUnits="userSpaceOnUse"
       gradientTransform="matrix(0.20000001,0,0,0.20000001,-5.9047195,29.88251)" />
  </defs>
  <sodipodi:namedview
     id="base"
     pagecolor="#ffffff"
     bordercolor="#666666"
     borderopacity="1.0"
     inkscape:pageopacity="0.0"
     inkscape:pageshadow="2"
     inkscape:zoom="1.9474308"
     inkscape:cx="96.25161"
     inkscape:cy="96.867553"
     inkscape:document-units="mm"
     inkscape:current-layer="layer1"
     inkscape:document-rotation="0"
     showgrid="false"
     fit-margin-top="0"
     fit-margin-left="0"
     fit-margin-right="0"
     fit-margin-bottom="0"
     inkscape:showpageshadow="false"
     showborder="false" />
  <metadata
     id="metadata5">
    <rdf:RDF>
      <cc:Work
         rdf:about="">
        <dc:format>image/svg+xml</dc:format>
        <dc:type
           rdf:resource="http://purl.org/dc/dcmitype/StillImage" />
        <dc:title></dc:title>
      </cc:Work>
    </rdf:RDF>
  </metadata>
  <g
     inkscape:label="Layer 1"
     inkscape:groupmode="layer"
     id="layer1"
     transform="translate(17.203562,-37.353138)">
    <rect
       style="color:#000000;overflow:visible;fill:#666666;stroke-width:1.04085;paint-order:markers fill stroke;filter:url(#filter1202);stop-color:#000000"
       id="rect1148"
       width="103.1875"
       height="103.1875"
       x="-15.436146"
       y="38.062222"
       transform="matrix(-0.2003205,0,0,0.2003205,8.6588109,29.976542)"
       inkscape:export-xdpi="96"
       inkscape:export-ydpi="96" />
    <path
       id="path3176-3"
       d="m 77.877124,41.179344 c 26.764286,0 48.476626,21.712339 48.476626,48.476627 10e-6,26.764289 -21.71234,48.476629 -48.476626,48.476629 -26.764288,0 -48.476627,-21.71234 -48.476627,-48.476629 0,-26.764288 21.712339,-48.476627 48.476627,-48.476627 z"
       style="fill:#4d4d4d;stroke:#4d4d4d;stroke-width:0.942446;filter:url(#filter1078)"
       transform="matrix(-0.2031118,0,0,0.2031118,8.8006594,29.603519)"
       inkscape:export-xdpi="96"
       inkscape:export-ydpi="96" />
    <g
       id="g128"
       transform="matrix(-0.05291666,0,0,0.05291666,3.56623,37.230372)"
       inkscape:export-xdpi="96"
       inkscape:export-ydpi="96">
      <path
         id="path3191"
         d="M 200,15 C 97.88,15 15,97.88 15,200 15,302.12 97.88,385 200,385 302.12,385 385,302.12 385,200 385,97.88 302.12,15 200,15 Z m 0,179.8125 c 2.86645,0 5.18749,2.32105 5.1875,5.1875 0,2.86645 -2.32105,5.18749 -5.1875,5.1875 -2.86645,0 -5.18749,-2.32105 -5.1875,-5.1875 0,-2.86645 2.32105,-5.18749 5.1875,-5.1875 z" />
      <path
         id="path3271"
         d="m 200,132.65625 c -37.15925,0 -67.34375,30.1845 -67.34375,67.34375 0,37.15925 30.1845,67.34375 67.34375,67.34375 37.15925,0 67.34375,-30.1845 67.34375,-67.34375 0,-37.15925 -30.1845,-67.34375 -67.34375,-67.34375 z m 0,62.90625 c 2.45408,0 4.4375,1.98342 4.4375,4.4375 0,2.45408 -1.98342,4.4375 -4.4375,4.4375 -2.45408,0 -4.4375,-1.98342 -4.4375,-4.4375 0,-2.45408 1.98342,-4.4375 4.4375,-4.4375 z"
         style="fill:#333333" />
      <path
         id="path3176"
         d="M 200,16.78125 C 301.15637,16.78125 383.21875,98.843633 383.21875,200 383.21877,301.15637 301.15637,383.21875 200,383.21875 98.843633,383.21875 16.78125,301.15637 16.78125,200 16.78125,98.843633 98.843633,16.78125 200,16.78125 Z"
         style="fill:none;stroke:#000000;stroke-width:3.562" />
      <use
         height="100%"
         width="100%"
         transform="rotate(180,200,200)"
         id="use3151"
         xlink:href="#path3193"
         y="0"
         x="0" />
      <path
         id="path3193"
         d="m 106.4375,200 c 0,-51.65143 41.91107,-93.59375 93.5625,-93.59375 V 18.5625 C 99.85143,18.5625 18.56249,99.85142 18.5625,200 Z"
         style="fill:url(#radialGradient3328)" />
      <path
         id="path3215"
         d="m 200,132.6875 c 37.16701,0 67.3125,30.14548 67.3125,67.3125 0,37.16701 -30.14549,67.31445 -67.3125,67.31445 -37.16701,0 -67.31445,-30.14744 -67.31445,-67.31445 0,-37.16702 30.14744,-67.3125 67.31445,-67.3125 z"
         style="fill:none;stroke:#000000;stroke-width:3" />
      <path
         id="path3223"
         d="m 237.9628,162.03721 c -20.95262,-20.9526 -54.97299,-20.95261 -75.9256,0 -20.9526,20.95262 -20.9526,54.97299 0,75.92559 20.95262,20.9526 54.97299,20.95261 75.9256,0 20.9526,-20.95261 20.9526,-54.97298 0,-75.92559 z m -34.29468,34.29468 c 2.02688,2.02689 2.02688,5.30934 0,7.33623 -2.02689,2.02689 -5.30934,2.02688 -7.33624,0 -2.02688,-2.02688 -2.02688,-5.30934 0,-7.33623 2.02689,-2.02688 5.30934,-2.02688 7.33624,0 z"
         style="fill:url(#radialGradient3349)" />
      <path
         id="path3230"
         d="m 243.95111,156.0489 c -7.06177,-7.06176 -15.40617,-12.05335 -24.2847,-15.00392 l -1.23744,3.71231 c 8.31532,2.76444 16.12455,7.46249 22.7379,14.07584 8.05626,8.05626 13.25594,17.88433 15.60055,28.24008 l 3.82279,-0.86178 c -2.50205,-11.05558 -8.03761,-21.56103 -16.6391,-30.16253 z"
         style="opacity:0.742574;fill:#ffffff" />
      <path
         id="path3232"
         d="m 142.61386,190.25519 -3.88908,-0.66291 c -3.23715,19.17313 2.53847,39.5732 17.32411,54.35884 14.74595,14.74593 35.07597,20.5264 54.20416,17.34621 l -0.64082,-3.86699 c -17.92511,2.98388 -36.96183,-2.44619 -50.7791,-16.26346 -13.85228,-13.85228 -19.25338,-32.94694 -16.21927,-50.91169 z"
         style="opacity:0.742574;fill:#ffffff" />
    </g>
    <path
       id="rect132"
       style="color:#000000;overflow:visible;opacity:0.565461;fill:#666666;stroke-width:1.04085;paint-order:markers fill stroke;filter:url(#filter994);stop-color:#000000"
       d="m 89.447101,42.261693 h -2.825148 v 95.194197 h 0.953578 z"
       sodipodi:nodetypes="ccccc"
       inkscape:export-xdpi="96"
       inkscape:export-ydpi="96"
       transform="matrix(-0.2,0,0,0.2,8.5583219,29.88251)" />
    <rect
       style="color:#000000;overflow:visible;fill:#d4aa00;stroke-width:0.20817;paint-order:markers fill stroke;stop-color:#000000"
       id="rect130"
       width="20.637501"
       height="20.637501"
       x="-11.645551"
       y="37.494957"
       inkscape:export-xdpi="96"
       inkscape:export-ydpi="96"
       transform="scale(-1,1)" />
    <image
       width="19.579166"
       height="19.579166"
       preserveAspectRatio="none"
       xlink:href="file:///media/monolito/TOSHIBA%20EXT/wayback%20machine/music/Agalloch/%5B2010%5D%20Marrow%20of%20the%20Spirit/folder.jpg"
       id="image1144"
       sodipodi:absref="/media/monolito/TOSHIBA EXT/wayback machine/music/Agalloch/[2010] Marrow of the Spirit/folder.jpg"
       x="-8.4627819"
       y="38.024117" />
    <rect
       style="color:#000000;overflow:visible;opacity:0.565461;fill:url(#linearGradient1246);fill-opacity:1;stroke:none;stroke-width:0.105834;paint-order:markers fill stroke;stop-color:#000000"
       id="rect1238"
       width="19.579168"
       height="19.579168"
       x="-8.4627829"
       y="38.024117"
       inkscape:export-xdpi="96"
       inkscape:export-ydpi="96" />
  </g>
</svg>
